<svg xmlns="http://www.w3.org/2000/svg" viewBox="0 0 410 404"><defs><linearGradient id="a" x1="50%" x2="50%" y1="2.24%" y2="100%"><stop stop-color="#0EA5E9" stop-opacity=".8" offset="0%"/><stop stop-color="#22D3EE" stop-opacity="0" offset="100%"/></linearGradient><linearGradient id="b" x1="50%" x2="50%" y1="0%" y2="100%"><stop stop-color="#64748B" offset="0%"/><stop stop-color="#0F172A" offset="100%"/></linearGradient></defs><path fill="url(#a)" d="M399.641 59.525 215.643 388.545c-7.886 14.05-28.901 14.15-36.97.183L8.827 59.722C1.002 46.455 11.112 30 26.962 30h353.107c15.824 0 25.94 16.41 18.16 29.675Z"/><path fill="url(#b)" d="m292.965 1.574-112.27 218.141a8.218 8.218 0 0 0 11.598 10.823l63.28-36.468c2.463-1.42 5.53-.62 6.95 1.843a5 5 0 0 1 .53 3.78l-24.36 117.22c-1.24 5.984 6.464 9.608 10.352 4.459l4.444-5.999 150.912-269.11c4.379-7.8-3.5-16.682-11.84-12.98l-68.642 30.47c-2.475 1.098-5.294-.046-6.392-2.52-.165-.37-.284-.76-.353-1.16l-13.07-76.85c-1.397-8.24-12.73-9.5-16.57-1.73Z"/></svg>
